<svg id="Layer_1" data-name="Layer 1" xmlns="http://www.w3.org/2000/svg" viewBox="0 0 472.62 119.89"><defs><style>.cls-1{fill:#c10000;}.cls-2{fill:#fff;}</style></defs><path class="cls-1" d="M77.41,43.06C80.75,49.54,84,55.65,87,61.82a2.66,2.66,0,0,0,2.82,1.77c4.76-.09,9.53,0,14.29,0h2.47L101.21,53c-.23-.46-.49-.91-.72-1.38-1-2.1-2.85-4.2-2.87-6.31s1.8-4.08,2.84-6.11c2.2-4.3,4.46-8.56,6.61-12.88a2.24,2.24,0,0,1,2.38-1.47c5.48.08,11,0,16.45.06.11,0,.23.09.54.23Q123.2,31.46,120,37.78C112.72,51.87,105.45,66,98.26,80.07a2.79,2.79,0,0,1-3,1.8c-5-.1-10-.06-15.07,0a2.13,2.13,0,0,1-2.3-1.28c-3-6.06-6.2-12.07-9.25-18.12a2.54,2.54,0,0,1-.19-2C71.33,54.79,74.28,49.13,77.41,43.06Z"/><path class="cls-1" d="M20.05,81.83,26.57,69.1Q37.48,47.88,48.36,26.64a2.8,2.8,0,0,1,3-1.84c5,.12,10,.08,15.07,0a2.27,2.27,0,0,1,2.41,1.45c2.77,5.52,5.64,11,8.64,16.82H68.66c-2.74,0-5.49.08-8.22,0a2.36,2.36,0,0,0-2.55,1.52c-6,11.86-12.14,23.67-18.16,35.53a2.68,2.68,0,0,1-2.8,1.76C31.41,81.78,25.88,81.83,20.05,81.83Z"/><path class="cls-2" d="M137.47,26.34h9.72l30.08,44.89h.16V26.34h7.4V81h-9.41L145,36.05h-.15V81h-7.41Z"/><path class="cls-2" d="M192.62,62.66a18.68,18.68,0,0,1,1.5-7.48,19.65,19.65,0,0,1,4.13-6.09A19.88,19.88,0,0,1,219.69,45a19.21,19.21,0,0,1,6.17,4.13A19.48,19.48,0,0,1,230,55.18a18.68,18.68,0,0,1,1.5,7.48,19,19,0,0,1-5.63,13.62,19.61,19.61,0,0,1-6.17,4.09,20.18,20.18,0,0,1-15.27,0,19.84,19.84,0,0,1-6.17-4.09,19,19,0,0,1-5.63-13.62Zm7.41,0a15.08,15.08,0,0,0,.84,5.13,11.83,11.83,0,0,0,2.39,4A11.13,11.13,0,0,0,207,74.43a13.58,13.58,0,0,0,10,0,11.13,11.13,0,0,0,3.78-2.62,11.52,11.52,0,0,0,2.39-4,15.88,15.88,0,0,0,0-10.25,11.52,11.52,0,0,0-2.39-4,11.27,11.27,0,0,0-3.78-2.62,13.58,13.58,0,0,0-10,0,11.27,11.27,0,0,0-3.78,2.62,11.83,11.83,0,0,0-2.39,4A15.07,15.07,0,0,0,200,62.66Z"/><path class="cls-2" d="M237.51,44.38h6.94V50h.16a9.91,9.91,0,0,1,1.85-2.67,12.74,12.74,0,0,1,2.58-2A13.57,13.57,0,0,1,252.17,44a12,12,0,0,1,3.39-.5,9.62,9.62,0,0,1,3.08.46l-.3,7.48c-.57-.15-1.14-.28-1.7-.38a9.78,9.78,0,0,0-1.7-.16c-3.39,0-6,1-7.79,2.86s-2.7,4.86-2.7,8.87V81h-6.94Z"/><path class="cls-2" d="M263.35,44.38h6.48v5.71H270a6.18,6.18,0,0,1,1.2-1.93A11.92,11.92,0,0,1,273.65,46a15,15,0,0,1,3.54-1.78,13.31,13.31,0,0,1,4.52-.73,13,13,0,0,1,6.86,1.7,12.55,12.55,0,0,1,4.55,5.09,11.65,11.65,0,0,1,5-5.09,14,14,0,0,1,6.55-1.7,15.08,15.08,0,0,1,6.94,1.39,11.21,11.21,0,0,1,4.25,3.66A14.23,14.23,0,0,1,318,53.68a30.86,30.86,0,0,1,.58,6V81h-6.95V60.58a28.93,28.93,0,0,0-.27-4,9.41,9.41,0,0,0-1.11-3.39,6.37,6.37,0,0,0-2.4-2.35,8,8,0,0,0-4.08-.89q-5,0-7.18,3.08A13.57,13.57,0,0,0,294.43,61V81h-6.94V61.82a38.87,38.87,0,0,0-.27-4.79,11.32,11.32,0,0,0-1.08-3.74,6,6,0,0,0-2.31-2.46,7.85,7.85,0,0,0-4.05-.89,9.11,9.11,0,0,0-3.59.73,8.5,8.5,0,0,0-3.05,2.2,10.82,10.82,0,0,0-2.08,3.74,16.85,16.85,0,0,0-.77,5.36V81h-6.94Z"/><path class="cls-2" d="M326.52,48.86a19.22,19.22,0,0,1,6.79-4A23.2,23.2,0,0,1,341,43.46a21.07,21.07,0,0,1,6.9,1,13.54,13.54,0,0,1,4.75,2.7,10.64,10.64,0,0,1,2.73,3.9,12,12,0,0,1,.89,4.59V74.31c0,1.29,0,2.47.08,3.55s.13,2.11.23,3.09h-6.17c-.15-1.86-.23-3.71-.23-5.56H350a13.27,13.27,0,0,1-5.47,5,17.37,17.37,0,0,1-7.33,1.46,16.89,16.89,0,0,1-4.86-.69,12,12,0,0,1-4.05-2.09,9.89,9.89,0,0,1-2.74-3.43A11.86,11.86,0,0,1,326.17,65a12.18,12.18,0,0,1,4.32-3.9,21.05,21.05,0,0,1,6.4-2.16,45.19,45.19,0,0,1,7.83-.65h5.09V56.73a7.59,7.59,0,0,0-.54-2.78,7.51,7.51,0,0,0-1.62-2.51,7.83,7.83,0,0,0-2.7-1.77A10.17,10.17,0,0,0,341.1,49a14,14,0,0,0-3.51.39,16,16,0,0,0-2.74,1,12.68,12.68,0,0,0-2.24,1.35l-1.93,1.47Zm19.59,14.5a48.46,48.46,0,0,0-5.05.27,20,20,0,0,0-4.71,1,9,9,0,0,0-3.47,2.16,4.89,4.89,0,0,0-1.35,3.55,5,5,0,0,0,2.12,4.55,10.45,10.45,0,0,0,5.75,1.39,11.06,11.06,0,0,0,4.86-1,9,9,0,0,0,3.24-2.5,9.8,9.8,0,0,0,1.77-3.44,13.53,13.53,0,0,0,.54-3.74V63.36Z"/><path class="cls-2" d="M363.7,44.38h6.94V50h.15a10.25,10.25,0,0,1,4.55-4.75,15.07,15.07,0,0,1,7.49-1.81,15.89,15.89,0,0,1,5.05.81,11.43,11.43,0,0,1,4.24,2.51A12.05,12.05,0,0,1,395,51.13a16.69,16.69,0,0,1,1.08,6.29V81h-6.94V59.35a12.27,12.27,0,0,0-.69-4.36,8.09,8.09,0,0,0-1.85-2.93,6.89,6.89,0,0,0-2.67-1.62,9.9,9.9,0,0,0-3.12-.5,11.37,11.37,0,0,0-4,.69,8.54,8.54,0,0,0-3.24,2.2,10.27,10.27,0,0,0-2.16,3.82,17.48,17.48,0,0,0-.77,5.47V81H363.7Z"/><path class="cls-1" d="M405.64,53.85h0l1.95-6.67h.95l2,6.67h0l1.85-6.67h.88L411,55h-.92l-2-6.67h0L406.12,55h-.93l-2.3-7.79h.88Z"/><path class="cls-1" d="M418.69,52.4a2.91,2.91,0,0,1-.2,1.07,2.6,2.6,0,0,1-1.43,1.43,3.08,3.08,0,0,1-1.11.2,3,3,0,0,1-1.09-.2,2.63,2.63,0,0,1-.87-.57,2.51,2.51,0,0,1-.56-.86,2.86,2.86,0,0,1,0-2.15,2.51,2.51,0,0,1,.56-.86,2.63,2.63,0,0,1,.87-.57,3,3,0,0,1,1.09-.2,3.08,3.08,0,0,1,1.11.2,2.6,2.6,0,0,1,1.43,1.43A2.92,2.92,0,0,1,418.69,52.4Zm-.79,0a2.38,2.38,0,0,0-.14-.81,1.94,1.94,0,0,0-.39-.65,2,2,0,0,0-2.23-.43,1.77,1.77,0,0,0-.6.43,1.94,1.94,0,0,0-.39.65,2.56,2.56,0,0,0,0,1.61,1.94,1.94,0,0,0,.39.65,1.65,1.65,0,0,0,.6.43,2.13,2.13,0,0,0,1.62,0,1.78,1.78,0,0,0,.61-.43,1.94,1.94,0,0,0,.39-.65A2.36,2.36,0,0,0,417.9,52.4Z"/><path class="cls-1" d="M424.83,52.4a2.72,2.72,0,0,1-.21,1.07,2.51,2.51,0,0,1-.56.86,2.63,2.63,0,0,1-.87.57,3,3,0,0,1-1.1.2,3,3,0,0,1-1.1-.2,2.6,2.6,0,0,1-1.43-1.43,3,3,0,0,1,0-2.15A2.6,2.6,0,0,1,421,49.89a3,3,0,0,1,1.1-.2,3,3,0,0,1,1.1.2,2.63,2.63,0,0,1,.87.57,2.51,2.51,0,0,1,.56.86A2.74,2.74,0,0,1,424.83,52.4Zm-.79,0a2.38,2.38,0,0,0-.14-.81,1.94,1.94,0,0,0-.39-.65,2,2,0,0,0-2.23-.43,1.77,1.77,0,0,0-.6.43,1.94,1.94,0,0,0-.39.65,2.38,2.38,0,0,0,0,1.61,1.94,1.94,0,0,0,.39.65,1.65,1.65,0,0,0,.6.43,2.13,2.13,0,0,0,1.62,0,1.78,1.78,0,0,0,.61-.43,1.94,1.94,0,0,0,.39-.65A2.36,2.36,0,0,0,424,52.4Z"/><path class="cls-1" d="M430.9,55h-.73v-.86h0a1.81,1.81,0,0,1-.42.45,2.42,2.42,0,0,1-.5.31,2.72,2.72,0,0,1-.55.18,3.27,3.27,0,0,1-.53.05,3.08,3.08,0,0,1-1.11-.2,2.6,2.6,0,0,1-1.43-1.43,3,3,0,0,1,0-2.15A2.6,2.6,0,0,1,427,49.89a3.08,3.08,0,0,1,1.11-.2,3.27,3.27,0,0,1,.53.05,2.72,2.72,0,0,1,.55.18,2.42,2.42,0,0,1,.5.31,1.81,1.81,0,0,1,.42.45h0v-4h.73Zm-4.7-2.57a2.36,2.36,0,0,0,.14.8,1.94,1.94,0,0,0,.39.65,1.78,1.78,0,0,0,.61.43,1.92,1.92,0,0,0,.81.16,2,2,0,0,0,.82-.16,1.94,1.94,0,0,0,.65-.43,1.89,1.89,0,0,0,.43-.65,2.11,2.11,0,0,0,0-1.61,1.89,1.89,0,0,0-.43-.65,2.1,2.1,0,0,0-.65-.43,2,2,0,0,0-.82-.16,1.89,1.89,0,0,0-1.42.59,1.94,1.94,0,0,0-.39.65A2.38,2.38,0,0,0,426.2,52.4Z"/><path class="cls-1" d="M404.74,68.29H404V60.51h4.7v.72h-3.91v2.65h3.63v.73h-3.63Z"/><path class="cls-1" d="M413.14,68.29a2.73,2.73,0,0,1,0-.41c0-.13,0-.27,0-.41h0a1.4,1.4,0,0,1-.31.38,1.9,1.9,0,0,1-.42.31,2.39,2.39,0,0,1-.49.2,2.24,2.24,0,0,1-.51.07,1.88,1.88,0,0,1-1.46-.53,2.1,2.1,0,0,1-.47-1.49V63.15h.72V66a4.16,4.16,0,0,0,.07.75,1.35,1.35,0,0,0,.23.56,1,1,0,0,0,.42.34,1.69,1.69,0,0,0,.68.12l.31,0a1.37,1.37,0,0,0,.53-.24,1.65,1.65,0,0,0,.5-.59,2.26,2.26,0,0,0,.22-1.1V63.15h.73v4c0,.14,0,.32,0,.53s0,.41,0,.6Z"/><path class="cls-1" d="M415.23,64.75c0-.22,0-.46,0-.69s0-.54,0-.91h.72v.95h0a1.44,1.44,0,0,1,.22-.4,1.68,1.68,0,0,1,.82-.59,1.9,1.9,0,0,1,.61-.1,2.21,2.21,0,0,1,.54.07l-.15.72a1.07,1.07,0,0,0-.41-.06,1.47,1.47,0,0,0-.72.16,1.51,1.51,0,0,0-.49.41,1.65,1.65,0,0,0-.3.53,1.81,1.81,0,0,0-.09.55v2.9h-.72Z"/><path class="cls-1" d="M419.31,63.15c0,.14,0,.27,0,.41s0,.27,0,.41h0a1.4,1.4,0,0,1,.31-.38,2,2,0,0,1,.91-.5,1.81,1.81,0,0,1,.51-.08,1.86,1.86,0,0,1,1.46.53A2.12,2.12,0,0,1,423,65v3.26h-.72V65.45a2.41,2.41,0,0,0-.3-1.32,1.22,1.22,0,0,0-1.1-.46l-.31,0a1.37,1.37,0,0,0-.53.24,1.75,1.75,0,0,0-.5.59,2.29,2.29,0,0,0-.22,1.1v2.64h-.73v-4c0-.14,0-.32,0-.53s0-.41,0-.6Z"/><path class="cls-1" d="M425.4,61.17a.47.47,0,0,1-.17.38.5.5,0,0,1-.36.14.51.51,0,0,1-.36-.14.5.5,0,0,1-.17-.38.49.49,0,0,1,.17-.38.53.53,0,0,1,.36-.15.51.51,0,0,1,.36.15A.46.46,0,0,1,425.4,61.17Zm-.17,7.12h-.72V63.15h.72Z"/><path class="cls-1" d="M429.26,63.81h-1.48v3a1.57,1.57,0,0,0,.05.47.82.82,0,0,0,.15.28.58.58,0,0,0,.24.14,1.36,1.36,0,0,0,.3,0,1.32,1.32,0,0,0,.39-.06,1.92,1.92,0,0,0,.36-.14l0,.67a2.45,2.45,0,0,1-1,.19,1.72,1.72,0,0,1-.44-.06,1,1,0,0,1-.41-.21,1,1,0,0,1-.31-.42,1.64,1.64,0,0,1-.12-.69V63.81H426v-.66h1.09V61.69h.73v1.46h1.48Z"/><path class="cls-1" d="M433.58,68.29c0-.13,0-.27,0-.41s0-.27,0-.41h0a1.4,1.4,0,0,1-.31.38,1.9,1.9,0,0,1-.42.31,2.39,2.39,0,0,1-.49.2,2.24,2.24,0,0,1-.51.07,1.86,1.86,0,0,1-1.46-.53,2.1,2.1,0,0,1-.47-1.49V63.15h.72V66a3.42,3.42,0,0,0,.07.75,1.49,1.49,0,0,0,.22.56,1,1,0,0,0,.43.34,1.69,1.69,0,0,0,.68.12l.31,0a1.37,1.37,0,0,0,.53-.24,1.75,1.75,0,0,0,.5-.59,2.26,2.26,0,0,0,.22-1.1V63.15h.73v4c0,.14,0,.32,0,.53s0,.41,0,.6Z"/><path class="cls-1" d="M435.67,64.75c0-.22,0-.46,0-.69s0-.54,0-.91h.71v.95h0a1.44,1.44,0,0,1,.22-.4,1.68,1.68,0,0,1,.82-.59A1.9,1.9,0,0,1,438,63a2.21,2.21,0,0,1,.54.07l-.15.72a1.1,1.1,0,0,0-.42-.06,1.46,1.46,0,0,0-.71.16,1.67,1.67,0,0,0-.5.41,1.83,1.83,0,0,0-.29.53,1.81,1.81,0,0,0-.09.55v2.9h-.73Z"/><path class="cls-1" d="M439.17,65.92a2.13,2.13,0,0,0,.19.72,1.78,1.78,0,0,0,.41.59,1.65,1.65,0,0,0,.58.39,1.71,1.71,0,0,0,.71.15,1.84,1.84,0,0,0,1-.27,2,2,0,0,0,.64-.62l.56.46a2.69,2.69,0,0,1-1,.83,2.84,2.84,0,0,1-1.2.26,2.67,2.67,0,0,1-1.06-.21,2.53,2.53,0,0,1-.84-.56,3,3,0,0,1-.56-.86,3,3,0,0,1,0-2.16,2.58,2.58,0,0,1,.55-.86,2.44,2.44,0,0,1,.82-.56,2.53,2.53,0,0,1,1-.21,2.48,2.48,0,0,1,1,.21,2.32,2.32,0,0,1,1.26,1.37,3,3,0,0,1,.16,1v.33Zm3.5-.6a1.66,1.66,0,0,0-.44-1.19,1.64,1.64,0,0,0-1.23-.46,1.76,1.76,0,0,0-.68.14,1.92,1.92,0,0,0-.58.37,1.73,1.73,0,0,0-.4.53,1.34,1.34,0,0,0-.15.61Z"/><path class="cls-1" d="M408.71,79.82l1.75,1.8h-1.12l-1.1-1.14a4.49,4.49,0,0,1-1,1,2.43,2.43,0,0,1-1.35.36,2.92,2.92,0,0,1-.93-.15,2.32,2.32,0,0,1-.78-.44,2.12,2.12,0,0,1-.53-.69,2.2,2.2,0,0,1-.2-.94,2.22,2.22,0,0,1,.14-.79,2.32,2.32,0,0,1,.4-.63,3,3,0,0,1,.56-.5,4.44,4.44,0,0,1,.67-.38,5.84,5.84,0,0,1-.63-.83,1.87,1.87,0,0,1-.28-1,1.94,1.94,0,0,1,.15-.78,1.74,1.74,0,0,1,.41-.58,1.91,1.91,0,0,1,.62-.36,2.35,2.35,0,0,1,.77-.12,2.13,2.13,0,0,1,.72.12,1.93,1.93,0,0,1,.6.33,1.5,1.5,0,0,1,.41.55,1.79,1.79,0,0,1,.15.75,1.41,1.41,0,0,1-.16.69,2.09,2.09,0,0,1-.4.55,3.42,3.42,0,0,1-.55.44l-.61.35,1.8,1.84,1.06-1.84h.89Zm-3-2c-.26.15-.48.29-.66.41a2.12,2.12,0,0,0-.43.41,1.45,1.45,0,0,0-.24.46,1.8,1.8,0,0,0-.08.54,1.32,1.32,0,0,0,.13.6,1.52,1.52,0,0,0,.35.47,1.63,1.63,0,0,0,.51.3,1.54,1.54,0,0,0,.61.11,1.7,1.7,0,0,0,.57-.09,2.23,2.23,0,0,0,.49-.24,2.36,2.36,0,0,0,.42-.36,5.63,5.63,0,0,0,.38-.45Zm1.63-2.41a1,1,0,0,0-.32-.74,1.08,1.08,0,0,0-.76-.28,1.16,1.16,0,0,0-.83.31,1,1,0,0,0-.34.83,1,1,0,0,0,.1.42,2.24,2.24,0,0,0,.22.4,3,3,0,0,0,.26.34,1.34,1.34,0,0,0,.24.24l.47-.27a3.82,3.82,0,0,0,.47-.31,1.69,1.69,0,0,0,.35-.41A1,1,0,0,0,407.32,75.38Z"/><path class="cls-1" d="M414.77,81.62H414V73.83h.79Z"/><path class="cls-1" d="M416.93,76.47l0,.41v.42h0a2.31,2.31,0,0,1,.31-.39,2,2,0,0,1,.42-.3,2.1,2.1,0,0,1,.49-.2,1.79,1.79,0,0,1,.51-.07,1.9,1.9,0,0,1,1.47.52,2.18,2.18,0,0,1,.47,1.49v3.27h-.73V78.77a2.37,2.37,0,0,0-.3-1.31,1.19,1.19,0,0,0-1.1-.46l-.3,0a1.3,1.3,0,0,0-.54.25,1.87,1.87,0,0,0-.5.59A2.35,2.35,0,0,0,417,79v2.64h-.72v-4c0-.14,0-.31,0-.52s0-.42,0-.61Z"/><path class="cls-1" d="M424.63,77.13h-1.48v3a1.61,1.61,0,0,0,.05.47.82.82,0,0,0,.15.28.56.56,0,0,0,.24.13,1,1,0,0,0,.3,0,1.74,1.74,0,0,0,.39,0,1.94,1.94,0,0,0,.36-.15l0,.67a2.23,2.23,0,0,1-1,.19,2.27,2.27,0,0,1-.43,0,1.07,1.07,0,0,1-.41-.21,1,1,0,0,1-.31-.42,1.71,1.71,0,0,1-.12-.69V77.13h-1.09v-.66h1.09V75h.73v1.45h1.48Z"/><path class="cls-1" d="M425.74,79.24a2,2,0,0,0,.19.73,2,2,0,0,0,.4.59,2.16,2.16,0,0,0,.59.39,1.87,1.87,0,0,0,.71.14,1.84,1.84,0,0,0,1-.27,1.91,1.91,0,0,0,.64-.62l.56.46a2.72,2.72,0,0,1-1,.84,3,3,0,0,1-2.26,0,2.5,2.5,0,0,1-.84-.57,2.67,2.67,0,0,1-.56-.86,3,3,0,0,1,0-2.15,2.49,2.49,0,0,1,.55-.86,2.63,2.63,0,0,1,.82-.57,2.7,2.7,0,0,1,1-.2,2.48,2.48,0,0,1,1,.21,2.34,2.34,0,0,1,.78.55,2.4,2.4,0,0,1,.48.82,2.94,2.94,0,0,1,.16,1v.33Zm3.5-.59a1.65,1.65,0,0,0-.44-1.19,1.6,1.6,0,0,0-1.23-.46,1.72,1.72,0,0,0-.68.14,1.65,1.65,0,0,0-.58.37,1.81,1.81,0,0,0-.4.52,1.38,1.38,0,0,0-.15.62Z"/><path class="cls-1" d="M431,78.08c0-.23,0-.46,0-.7s0-.53,0-.91h.71v1h0A1.8,1.8,0,0,1,432,77a1.61,1.61,0,0,1,.34-.35,2.34,2.34,0,0,1,.47-.25,2,2,0,0,1,.62-.09,1.7,1.7,0,0,1,.53.07l-.14.71a1.13,1.13,0,0,0-.42-.05,1.55,1.55,0,0,0-.71.15,1.83,1.83,0,0,0-.5.41,1.66,1.66,0,0,0-.29.54,1.81,1.81,0,0,0-.09.55v2.9H431Z"/><path class="cls-1" d="M435.29,74.49a.49.49,0,0,1-.17.38.51.51,0,0,1-.72,0,.49.49,0,0,1-.17-.38.5.5,0,0,1,.17-.38.51.51,0,0,1,.72,0A.5.5,0,0,1,435.29,74.49Zm-.17,7.13h-.72V76.47h.72Z"/><path class="cls-1" d="M441.69,79.05a2.91,2.91,0,0,1-.2,1.07,2.6,2.6,0,0,1-1.43,1.43,3.08,3.08,0,0,1-1.11.2,3,3,0,0,1-1.09-.2A2.74,2.74,0,0,1,437,81a2.51,2.51,0,0,1-.56-.86,2.86,2.86,0,0,1,0-2.15,2.51,2.51,0,0,1,.56-.86,2.74,2.74,0,0,1,.87-.57,3,3,0,0,1,1.09-.2,3.08,3.08,0,0,1,1.11.2A2.6,2.6,0,0,1,441.49,78,2.92,2.92,0,0,1,441.69,79.05Zm-.79,0a2.38,2.38,0,0,0-.14-.81,1.94,1.94,0,0,0-.39-.65,2,2,0,0,0-2.23-.43,1.77,1.77,0,0,0-.6.43,1.94,1.94,0,0,0-.39.65,2.56,2.56,0,0,0,0,1.61,1.94,1.94,0,0,0,.39.65,1.65,1.65,0,0,0,.6.43,2.13,2.13,0,0,0,1.62,0,1.78,1.78,0,0,0,.61-.43,1.94,1.94,0,0,0,.39-.65A2.36,2.36,0,0,0,440.9,79.05Z"/><path class="cls-1" d="M442.7,78.08c0-.23,0-.46,0-.7s0-.53,0-.91h.71v1h0a1.44,1.44,0,0,1,.22-.4,1.61,1.61,0,0,1,.34-.35,2.17,2.17,0,0,1,.48-.25,1.87,1.87,0,0,1,.61-.09,1.7,1.7,0,0,1,.53.07l-.14.71a1.13,1.13,0,0,0-.42-.05,1.55,1.55,0,0,0-.71.15,1.83,1.83,0,0,0-.5.41,1.66,1.66,0,0,0-.29.54,1.81,1.81,0,0,0-.09.55v2.9h-.73Z"/></svg>